<?xml version="1.0" encoding="utf-8"?>
<!-- Generator: Adobe Illustrator 17.1.0, SVG Export Plug-In . SVG Version: 6.00 Build 0)  -->
<!DOCTYPE svg PUBLIC "-//W3C//DTD SVG 1.1//EN" "http://www.w3.org/Graphics/SVG/1.1/DTD/svg11.dtd">
<svg version="1.1" id="Layer_1" xmlns="http://www.w3.org/2000/svg" xmlns:xlink="http://www.w3.org/1999/xlink" x="0px" y="0px"
	 viewBox="0 0 595.3 841.9" enable-background="new 0 0 595.3 841.9" xml:space="preserve">
<path d="M388.3,733.8c-5.4,0-9.7,7.7-9.7,17.3c0,9.5,4.4,17.3,9.7,17.3c5.4,0,9.8-7.8,9.8-17.3C398.1,741.5,393.7,733.8,388.3,733.8
	z M297.6,168.9L85.3,478.2c0,0.4,0,1.1-0.2,2c-0.1,0.9-0.2,1.5-0.2,2v313.1c0,11.3,2.3,21.1,7,29.3c4.7,8.3,10.2,12.4,16.6,12.4
	h141.8h94.5h141.8c6.4,0,11.9-4.1,16.6-12.4c4.7-8.2,7-18.1,7-29.4V482.1c0-1.8-0.1-3.1-0.4-3.9L297.6,168.9z M227.5,722.9l2.5,4.6
	l-10.6,23.2l-35,39.1l-5.6-10l22.1-61.7l13.2-18.8l2.6,4.5l44.1-77.9l11,19.1L227.5,722.9z M404.2,775.9c-5,8.8-11.5,13.3-18.1,13.3
	c-6.5,0-13.1-4.4-18.1-13.3L241.9,553l-0.2-0.3c-18.8,10.8-40.3,3.1-55.2-23.3c-14.2-25.2-18.9-60.7-13.9-92.7l30.7,54.2l30.1-14.2
	l8-53l-30.7-54.2c18.1-8.7,38.3-0.5,52.5,24.6c14.3,25.3,19,61.2,13.9,93.4L404.2,712C414.2,729.7,414.2,758.3,404.2,775.9z
	 M355.2,546.7c-6.1-1.2-12.3,1.5-17.6,7.7l-25.8-44.9c3.7-9.5,5.2-20.6,4.5-31.5l69.5-122.6l38.8,68.7L355.2,546.7z M591.2,407.7
	L510.3,289V22.8c0-6.1-1.1-11.1-3.3-15c-2.2-3.9-5-5.9-8.5-5.9h-70.9c-3.5,0-6.3,2-8.5,5.9c-2.2,3.9-3.3,8.9-3.3,15V150L325.7,17
	c-7.9-11.3-17.2-17-28.1-17c-10.8,0-20.2,5.7-28.1,17L4.1,407.7c-2.5,3.5-3.8,8.1-4.1,14c-0.2,5.9,0.6,11,2.6,15.4l22.9,48.2
	c2,3.9,4.6,6.3,7.7,7.2c3,0.4,5.9-1.1,8.9-4.6l255.5-376.4l255.5,376.4c2,3.1,4.6,4.6,7.7,4.6h1.1c3.2-0.9,5.8-3.3,7.7-7.2
	l22.9-48.3c1.9-4.3,2.8-9.5,2.6-15.3C595,415.8,593.6,411.2,591.2,407.7z"/>
</svg>
