<?xml version="1.0" encoding="utf-8"?>
<!-- Generator: Adobe Illustrator 17.1.0, SVG Export Plug-In . SVG Version: 6.00 Build 0)  -->
<!DOCTYPE svg PUBLIC "-//W3C//DTD SVG 1.1//EN" "http://www.w3.org/Graphics/SVG/1.1/DTD/svg11.dtd">
<svg version="1.1" id="Layer_1" xmlns="http://www.w3.org/2000/svg" xmlns:xlink="http://www.w3.org/1999/xlink" x="0px" y="0px"
	 viewBox="0 0 595.3 841.9" enable-background="new 0 0 595.3 841.9" xml:space="preserve">
<g>
	<path d="M390.7,386.4c12.4-12.1,27-17.3,41.2-14.9l162.8-238.2L503.6,0L340.7,238.1c1.8,21.2-1.9,42.8-10.5,61.2L390.7,386.4z
		 M390.7,386.4"/>
	<g>
		<path d="M106.8,676.6l-6-8.8L70,704.4L18,824.2l13.2,19.4l82-76l24.9-45l-5.9-8.9l103.6-151.3l-25.8-37.2L106.8,676.6z
			 M106.8,676.6"/>
		<path d="M248.4,256.5c12-62.6,1.1-132.4-32.5-181.5c-33.4-48.8-80.6-64.7-123.1-47.9l71.9,105.2l-18.8,103l-70.5,27.7L3.4,157.9
			C-8.1,220,2.8,289,36.2,337.9c35,51.2,85.4,66.1,129.4,45.2l0.4,0.6l296,432.9c11.6,17.2,27,25.8,42.4,25.8
			c15.3,0,30.7-8.6,42.4-25.8c23.4-34,23.4-89.7,0-124L248.4,256.5z M509.5,802c-12.6,0-22.8-15.1-22.8-33.5
			c0-18.6,10.2-33.6,22.8-33.6c12.7,0,22.9,15,22.9,33.6C532.5,786.9,522.2,802,509.5,802L509.5,802z M509.5,802"/>
	</g>
</g>
</svg>
