<?xml version="1.0" encoding="utf-8"?>
<!-- Generator: Adobe Illustrator 17.1.0, SVG Export Plug-In . SVG Version: 6.00 Build 0)  -->
<!DOCTYPE svg PUBLIC "-//W3C//DTD SVG 1.1//EN" "http://www.w3.org/Graphics/SVG/1.1/DTD/svg11.dtd">
<svg version="1.1" id="Capa_1" xmlns="http://www.w3.org/2000/svg" xmlns:xlink="http://www.w3.org/1999/xlink" x="0px" y="0px"
	 viewBox="-49 141 512 512" enable-background="new -49 141 512 512" xml:space="preserve">
<path d="M97.6,434.4L97.6,434.4h162.1l0,0l0,0l0,0c61.7-20.5,104.3-63.7,104.3-113.6v-65.9h39.4v-30l0,0l0,0l-108.1,0v-69.1
	c0-8.2-9.8-14.9-21.8-14.9h-0.4c-12,0-21.8,6.6-21.8,14.9v69.1H106.1v-69.1c0-8.2-9.8-14.9-21.8-14.9h-0.4c-12,0-21.8,6.6-21.8,14.9
	v69.1l-108.1,0l0,0l0,0v30h39.4v65.9C-6.7,370.7,35.9,413.9,97.6,434.4L97.6,434.4L97.6,434.4z M251.4,309.1H106v-30h145.3V309.1z
	 M106,334.9h145.3v30H106V334.9z"/>
<path d="M387.1,550.8H248.3c-26.3,0-47.6-14.5-47.6-32.4v-13.6H254v-40.4l0,0l0,0H103.4l0,0l0,0v40.4h53.3v13.6
	c0,34.5,41,62.4,91.6,62.4h138c16.8,0,31.1,8.9,31.7,20.3c0.7,12-13.5,21.9-31,21.9H180.7c-12,0-21.8,6.6-21.8,14.8v0.3
	c0,8.2,9.8,14.8,21.8,14.8h205.1c41.1,0,75.5-22.1,76.3-50.1C462.9,574.3,428.9,550.8,387.1,550.8z"/>
</svg>
