<?xml version="1.0" encoding="utf-8"?>
<!-- Generator: Adobe Illustrator 17.1.0, SVG Export Plug-In . SVG Version: 6.00 Build 0)  -->
<!DOCTYPE svg PUBLIC "-//W3C//DTD SVG 1.1//EN" "http://www.w3.org/Graphics/SVG/1.1/DTD/svg11.dtd">
<svg version="1.1" id="Layer_1" xmlns="http://www.w3.org/2000/svg" xmlns:xlink="http://www.w3.org/1999/xlink" x="0px" y="0px"
	 viewBox="0 0 595.3 841.9" enable-background="new 0 0 595.3 841.9" xml:space="preserve">
<g>
	<g>
		<path d="M297.6,458.8c47.5,0,159.2-67.6,159.2-229.4c0-22.6-0.5-44.4-2-65c-2.6-40.5-9.6-76.5-27.1-104
			C405.2,22.9,365.9,0,297.6,0c-68.3,0-107.5,22.9-130,60.3c-17.5,27.6-24.5,63.5-27.1,104.1c-1.6,20.6-2,42.4-2,65
			C138.5,391.3,250.1,458.8,297.6,458.8L297.6,458.8z M349.6,84c-4.6,13.8-7,20.8-11.6,34.6c-29.9-10-50.8-10-80.7,0
			c-4.6-13.8-7-20.8-11.6-34.6C283.1,70.7,312.1,70.7,349.6,84L349.6,84z M162.1,194.3c1.8,4.7,9.6,23,21.7,24.7
			c13.9,2,36.9-58,113.8-58.2c76.9,0.1,99.9,60.1,113.8,58.2c12.1-1.7,19.8-19.9,21.7-24.7c0.4,11.6,0.5,23.4,0.5,35.1
			c0,79.1-29.6,128.1-54.4,155.3c-31.3,34.3-65.9,46.7-81.6,46.7c-15.7,0-50.4-12.4-81.6-46.7c-24.8-27.2-54.4-76.2-54.4-155.3
			C161.6,217.7,161.8,205.9,162.1,194.3L162.1,194.3z M162.1,194.3"/>
		<path d="M593.1,694.1c-8.1-59.7-24.9-136.6-58.4-164c-22.9-18.7-102.9-69.2-137-90.7l-0.6-0.4c-3.9-2.5-8.7-2-12.1,1.3
			c-17.9,16.6-37.5,27.8-58.2,33.2c-3.7,1-6.7,4-8,8.2l-21.1,65.8l-21.1-65.8c-1.3-4.1-4.3-7.2-8-8.2c-20.7-5.5-40.3-16.6-58.2-33.2
			c-3.5-3.2-8.2-3.7-12.2-1.3c-33.7,21.3-114.7,72.8-137.5,91c-38.6,30.8-55.5,142-58.5,164c-0.3,2.2-0.1,4.4,0.5,6.5
			c0.8,2.7,13.6,41.8,77.5,73.3c3.7-5.5,8.6-9.6,14.1-12c-6.9-2.9-12.8-8.5-16.6-16.1c-5.7-11.3-5.9-25.4-0.6-36.9
			c16.4-35.4,47.7-57.5,81.9-57.5c31.8,0,60.6,18.7,77.7,49h121.9c3.3-5.9,7.2-11.4,11.5-16.5c17.6-20.9,41.1-32.4,66-32.4h0
			c34.1,0,65.5,21.9,82,57.2c5.3,11.5,5.2,25.6-0.5,36.9c-3.8,7.6-9.7,13.2-16.6,16.1c5.6,2.3,10.6,6.6,14.3,12.2
			c63.7-31.4,76.5-70.5,77.3-73.2C593.2,698.5,593.4,696.3,593.1,694.1L593.1,694.1z M593.1,694.1"/>
	</g>
	<path d="M490.5,792.1L490.5,792.1l-58.7,0.1c-1-2.9-3-11-3.1-30.4c0-19.4,2-27.5,3-30.4l58.7-0.1c1.4,0,2.7-0.9,3.4-2.3
		c0.7-1.4,0.7-3.2,0.1-4.6c-11.6-24.9-33.7-40.4-57.8-40.4c-17.6,0-34.1,8.2-46.5,22.9c-6.4,7.6-11.3,16.5-14.5,26.1H220.2
		c-9.7-28.6-33.5-49-61.2-49c-24.1,0-46.2,15.6-57.7,40.6c-0.7,1.5-0.6,3.2,0.1,4.6c0.7,1.4,2,2.3,3.4,2.3l58.7-0.1
		c1,2.9,3,11,3.1,30.4c0,19.4-2,27.5-3,30.4l-58.7,0.1c-1.4,0-2.7,0.9-3.4,2.3c-0.7,1.4-0.7,3.2-0.1,4.6
		c11.6,24.9,33.7,40.4,57.7,40.4h0.1c17.6,0,34.1-8.2,46.5-22.9c6.4-7.6,11.3-16.5,14.5-26.1h154.9c9.7,28.7,33.4,49,61.1,49h0.1
		c24,0,46.2-15.6,57.7-40.6c0.7-1.5,0.6-3.2-0.1-4.6C493.2,792.9,491.9,792.1,490.5,792.1L490.5,792.1z M490.5,792.1"/>
</g>
</svg>
